<?xml version="1.0" encoding="utf-8"?>
<!-- Generator: Adobe Illustrator 13.0.0, SVG Export Plug-In . SVG Version: 6.00 Build 14948)  -->
<!DOCTYPE svg PUBLIC "-//W3C//DTD SVG 1.1//EN" "http://www.w3.org/Graphics/SVG/1.1/DTD/svg11.dtd">
<svg version="1.1" id="svg5220" xmlns:svg="http://www.w3.org/2000/svg"
	 xmlns="http://www.w3.org/2000/svg" xmlns:xlink="http://www.w3.org/1999/xlink" x="0px" y="0px" width="1024px" height="522px"
	 viewBox="0 0 1024 522" enable-background="new 0 0 1024 522" xml:space="preserve">
<linearGradient id="path3060_1_" gradientUnits="userSpaceOnUse" x1="208.9673" y1="651.0459" x2="219.8857" y2="651.0459" gradientTransform="matrix(0 46.3769 -46.3769 0 30705.2793 -9690.9219)">
	<stop  offset="0" style="stop-color:#00B8F1"/>
	<stop  offset="0.2199" style="stop-color:#06A5E5"/>
	<stop  offset="0.2199" style="stop-color:#06A5E5"/>
	<stop  offset="0.7943" style="stop-color:#1870C5"/>
	<stop  offset="1" style="stop-color:#1D61BC"/>
</linearGradient>
<path id="path3060" fill="url(#path3060_1_)" d="M0,0.336v506.358h517.258L1023.554,0.392l0,0H0V0.336z"/>
<path id="path3100" fill="#FFFFFF" d="M613.317,242.621h-22.184v-81.14h22.184c29.619,0,53.194,9.764,53.194,40.053
	C666.512,232.818,642.937,242.621,613.317,242.621 M374.533,300.626c-11.746,0-22.757-2.144-32.276-5.722l31.958-100.78h0.679
	l31.296,101.052c-9.43,3.379-20.157,5.45-31.625,5.45 M607.438,95.565H506.687v239.563l-88.01-239.563h-87.241L256.241,295.85
	c-7.949-50.479-60.243-67.958-101.353-80.99c-27.099-8.723-55.94-21.538-55.679-35.727c0.229-11.607,15.493-22.367,45.603-20.764
	c20.291,1.03,38.193,2.672,73.725,19.851l34.998-60.972c-32.42-16.567-77.349-26.96-114.106-27.043h-0.228
	c-42.875,0-78.607,13.978-100.768,36.863c-15.403,16.004-23.736,36.25-24.115,58.79c-0.568,30.873,10.799,52.784,34.591,70.308
	c20.135,14.751,45.82,24.249,68.504,31.363c27.99,8.633,50.835,16.165,50.574,32.23c-0.229,5.851-2.405,11.334-6.635,15.665
	c-6.964,7.236-17.669,9.919-32.477,10.247c-28.551,0.568-49.721-3.874-83.445-23.802l-31.112,61.823
	c33.623,19.144,73.419,30.338,114.039,30.338h5.261c35.337-0.685,63.889-10.776,86.701-29.107l3.691-3.224l-10.076,27.089h91.489
	l15.37-46.733c16.071,5.438,34.38,8.495,53.763,8.495c18.916,0,36.757-2.851,52.544-8.05l14.774,46.288h149.283v-96.795h32.57
	c78.663,0,125.245-40.035,125.245-107.231c0-74.788-45.235-109.096-141.551-109.096"/>
</svg>
